<svg width="34" height="34" viewBox="0 0 34 34" fill="none" xmlns="http://www.w3.org/2000/svg">
<mask id="mask0_2261_20" style="mask-type:luminance" maskUnits="userSpaceOnUse" x="0" y="0" width="34" height="34">
<path d="M0.688333 0.688333H32.3517V32.3517H0.688333V0.688333Z" fill="white" stroke="white" stroke-width="1.37667"/>
</mask>
<g mask="url(#mask0_2261_20)">
<mask id="path-2-inside-1_2261_20" fill="white">
<path d="M20.6493 30.286L19.6947 31.7178C20.2228 32.0698 20.9018 32.1026 21.4613 31.8032C22.0209 31.5038 22.3701 30.9206 22.3701 30.286H20.6493ZM16.5193 27.5326L17.4739 26.1009C16.8958 25.7154 16.1428 25.7154 15.5647 26.1009L16.5193 27.5326ZM12.3893 30.286H10.6685C10.6685 30.9206 11.0178 31.5038 11.5773 31.8032C12.1369 32.1026 12.8158 32.0698 13.3439 31.7178L12.3893 30.286ZM21.6039 28.8542L17.4739 26.1009L15.5647 28.9645L19.6947 31.7178L21.6039 28.8542ZM15.5647 26.1009L11.4348 28.8542L13.3439 31.7178L17.4739 28.9645L15.5647 26.1009ZM17.3056 4.95558L17.3637 5.02375L19.9849 2.7934L19.9268 2.72524L17.3056 4.95558ZM21.1306 6.58402L21.2198 6.57684L20.9434 3.14628L20.8541 3.15346L21.1306 6.58402ZM22.3319 7.68891L22.3246 7.77812L25.7552 8.0545L25.7624 7.96529L22.3319 7.68891ZM23.8849 11.545L23.953 11.603L26.1834 8.98176L26.1152 8.92376L23.8849 11.545ZM23.953 13.1757L23.8849 13.2337L26.1152 15.8549L26.1834 15.7968L23.953 13.1757ZM22.3246 17.0006L22.3319 17.0898L25.7624 16.8133L25.7552 16.7241L22.3246 17.0006ZM21.2198 18.2019L21.1306 18.1946L20.8541 21.6252L20.9434 21.6324L21.2198 18.2019ZM17.3636 19.7549L17.3056 19.823L19.9268 22.0534L19.9849 21.9852L17.3636 19.7549ZM15.7329 19.823L15.675 19.7549L13.0538 21.9852L13.1118 22.0534L15.7329 19.823ZM11.9081 18.1946L11.8189 18.2019L12.0953 21.6324L12.1845 21.6252L11.9081 18.1946ZM10.7068 17.0896L10.714 17.0004L7.28347 16.7241L7.27629 16.8133L10.7068 17.0896ZM9.15374 13.2337L9.08558 13.1757L6.85525 15.7968L6.92342 15.8549L9.15374 13.2337ZM9.08558 11.603L9.15374 11.545L6.92342 8.92375L6.85526 8.98175L9.08558 11.603ZM10.714 7.77812L10.7068 7.68891L7.27629 7.96529L7.28347 8.0545L10.714 7.77812ZM11.8189 6.57684L11.9081 6.58402L12.1845 3.15346L12.0953 3.14628L11.8189 6.57684ZM15.675 5.02374L15.7329 4.95558L13.1118 2.72524L13.0538 2.7934L15.675 5.02374ZM11.9081 6.58402C13.3415 6.6995 14.7431 6.11896 15.675 5.02374L13.0538 2.7934C12.8387 3.04614 12.5153 3.18012 12.1845 3.15346L11.9081 6.58402ZM10.7068 7.68891C10.6558 7.05476 11.1848 6.52575 11.8189 6.57684L12.0953 3.14628C9.34734 2.9249 7.0549 5.21734 7.27629 7.96529L10.7068 7.68891ZM9.15374 11.545C10.249 10.6131 10.8295 9.21152 10.714 7.77812L7.28347 8.0545C7.31012 8.38528 7.17616 8.70869 6.92342 8.92375L9.15374 11.545ZM9.08558 13.1757C8.60105 12.7634 8.60105 12.0152 9.08558 11.603L6.85526 8.98175C4.75562 10.7683 4.75561 14.0103 6.85525 15.7968L9.08558 13.1757ZM10.714 17.0004C10.8295 15.5669 10.249 14.1656 9.15374 13.2337L6.92342 15.8549C7.17616 16.0699 7.31012 16.3933 7.28347 16.7241L10.714 17.0004ZM11.8189 18.2019C11.1848 18.2529 10.6558 17.7239 10.7068 17.0896L7.27629 16.8133C7.0549 19.5613 9.34734 21.8537 12.0953 21.6324L11.8189 18.2019ZM17.3056 19.823C16.8933 20.3076 16.1453 20.3076 15.7329 19.823L13.1118 22.0534C14.8983 24.153 18.1403 24.153 19.9268 22.0534L17.3056 19.823ZM22.3319 17.0898C22.3829 17.724 21.854 18.2529 21.2198 18.2019L20.9434 21.6324C23.6913 21.8537 25.9837 19.5613 25.7624 16.8133L22.3319 17.0898ZM23.8849 13.2337C22.7896 14.1656 22.2092 15.567 22.3246 17.0006L25.7552 16.7241C25.7285 16.3933 25.8625 16.0699 26.1152 15.8549L23.8849 13.2337ZM23.953 11.603C24.4376 12.0152 24.4376 12.7634 23.953 13.1757L26.1834 15.7968C28.283 14.0103 28.283 10.7683 26.1834 8.98176L23.953 11.603ZM22.3246 7.77812C22.2092 9.21152 22.7896 10.613 23.8849 11.545L26.1152 8.92376C25.8625 8.7087 25.7285 8.38528 25.7552 8.0545L22.3246 7.77812ZM21.2198 6.57684C21.8539 6.52575 22.3829 7.05476 22.3319 7.68891L25.7624 7.96529C25.9837 5.21734 23.6913 2.9249 20.9434 3.14628L21.2198 6.57684ZM17.3637 5.02375C18.2957 6.11897 19.6971 6.6995 21.1306 6.58402L20.8541 3.15346C20.5233 3.18012 20.1999 3.04614 19.9849 2.7934L17.3637 5.02375ZM19.9268 2.72524C18.1403 0.625606 14.8983 0.625603 13.1118 2.72524L15.7329 4.95558C16.1453 4.47104 16.8933 4.47104 17.3056 4.95558L19.9268 2.72524ZM15.675 19.7549C14.8643 18.8022 13.6985 18.239 12.4654 18.1845L12.3133 21.6229C12.5977 21.6354 12.8668 21.7655 13.0538 21.9852L15.675 19.7549ZM12.4654 18.1845C12.2807 18.1764 12.0946 18.1796 11.9081 18.1946L12.1845 21.6252C12.2278 21.6216 12.2707 21.6209 12.3133 21.6229L12.4654 18.1845ZM14.1101 30.286V19.9037H10.6685V30.286H14.1101ZM21.1306 18.1946C20.944 18.1796 20.7579 18.1764 20.5733 18.1845L20.7254 21.6229C20.7678 21.6209 20.8109 21.6216 20.8541 21.6252L21.1306 18.1946ZM20.5733 18.1845C19.3401 18.239 18.1743 18.8022 17.3636 19.7549L19.9849 21.9852C20.1719 21.7655 20.4409 21.6354 20.7254 21.6229L20.5733 18.1845ZM18.9285 19.9037V30.286H22.3701V19.9037H18.9285Z"/>
</mask>
<path d="M20.6493 30.286L19.6947 31.7178C20.2228 32.0698 20.9018 32.1026 21.4613 31.8032C22.0209 31.5038 22.3701 30.9206 22.3701 30.286H20.6493ZM16.5193 27.5326L17.4739 26.1009C16.8958 25.7154 16.1428 25.7154 15.5647 26.1009L16.5193 27.5326ZM12.3893 30.286H10.6685C10.6685 30.9206 11.0178 31.5038 11.5773 31.8032C12.1369 32.1026 12.8158 32.0698 13.3439 31.7178L12.3893 30.286ZM21.6039 28.8542L17.4739 26.1009L15.5647 28.9645L19.6947 31.7178L21.6039 28.8542ZM15.5647 26.1009L11.4348 28.8542L13.3439 31.7178L17.4739 28.9645L15.5647 26.1009ZM17.3056 4.95558L17.3637 5.02375L19.9849 2.7934L19.9268 2.72524L17.3056 4.95558ZM21.1306 6.58402L21.2198 6.57684L20.9434 3.14628L20.8541 3.15346L21.1306 6.58402ZM22.3319 7.68891L22.3246 7.77812L25.7552 8.0545L25.7624 7.96529L22.3319 7.68891ZM23.8849 11.545L23.953 11.603L26.1834 8.98176L26.1152 8.92376L23.8849 11.545ZM23.953 13.1757L23.8849 13.2337L26.1152 15.8549L26.1834 15.7968L23.953 13.1757ZM22.3246 17.0006L22.3319 17.0898L25.7624 16.8133L25.7552 16.7241L22.3246 17.0006ZM21.2198 18.2019L21.1306 18.1946L20.8541 21.6252L20.9434 21.6324L21.2198 18.2019ZM17.3636 19.7549L17.3056 19.823L19.9268 22.0534L19.9849 21.9852L17.3636 19.7549ZM15.7329 19.823L15.675 19.7549L13.0538 21.9852L13.1118 22.0534L15.7329 19.823ZM11.9081 18.1946L11.8189 18.2019L12.0953 21.6324L12.1845 21.6252L11.9081 18.1946ZM10.7068 17.0896L10.714 17.0004L7.28347 16.7241L7.27629 16.8133L10.7068 17.0896ZM9.15374 13.2337L9.08558 13.1757L6.85525 15.7968L6.92342 15.8549L9.15374 13.2337ZM9.08558 11.603L9.15374 11.545L6.92342 8.92375L6.85526 8.98175L9.08558 11.603ZM10.714 7.77812L10.7068 7.68891L7.27629 7.96529L7.28347 8.0545L10.714 7.77812ZM11.8189 6.57684L11.9081 6.58402L12.1845 3.15346L12.0953 3.14628L11.8189 6.57684ZM15.675 5.02374L15.7329 4.95558L13.1118 2.72524L13.0538 2.7934L15.675 5.02374ZM11.9081 6.58402C13.3415 6.6995 14.7431 6.11896 15.675 5.02374L13.0538 2.7934C12.8387 3.04614 12.5153 3.18012 12.1845 3.15346L11.9081 6.58402ZM10.7068 7.68891C10.6558 7.05476 11.1848 6.52575 11.8189 6.57684L12.0953 3.14628C9.34734 2.9249 7.0549 5.21734 7.27629 7.96529L10.7068 7.68891ZM9.15374 11.545C10.249 10.6131 10.8295 9.21152 10.714 7.77812L7.28347 8.0545C7.31012 8.38528 7.17616 8.70869 6.92342 8.92375L9.15374 11.545ZM9.08558 13.1757C8.60105 12.7634 8.60105 12.0152 9.08558 11.603L6.85526 8.98175C4.75562 10.7683 4.75561 14.0103 6.85525 15.7968L9.08558 13.1757ZM10.714 17.0004C10.8295 15.5669 10.249 14.1656 9.15374 13.2337L6.92342 15.8549C7.17616 16.0699 7.31012 16.3933 7.28347 16.7241L10.714 17.0004ZM11.8189 18.2019C11.1848 18.2529 10.6558 17.7239 10.7068 17.0896L7.27629 16.8133C7.0549 19.5613 9.34734 21.8537 12.0953 21.6324L11.8189 18.2019ZM17.3056 19.823C16.8933 20.3076 16.1453 20.3076 15.7329 19.823L13.1118 22.0534C14.8983 24.153 18.1403 24.153 19.9268 22.0534L17.3056 19.823ZM22.3319 17.0898C22.3829 17.724 21.854 18.2529 21.2198 18.2019L20.9434 21.6324C23.6913 21.8537 25.9837 19.5613 25.7624 16.8133L22.3319 17.0898ZM23.8849 13.2337C22.7896 14.1656 22.2092 15.567 22.3246 17.0006L25.7552 16.7241C25.7285 16.3933 25.8625 16.0699 26.1152 15.8549L23.8849 13.2337ZM23.953 11.603C24.4376 12.0152 24.4376 12.7634 23.953 13.1757L26.1834 15.7968C28.283 14.0103 28.283 10.7683 26.1834 8.98176L23.953 11.603ZM22.3246 7.77812C22.2092 9.21152 22.7896 10.613 23.8849 11.545L26.1152 8.92376C25.8625 8.7087 25.7285 8.38528 25.7552 8.0545L22.3246 7.77812ZM21.2198 6.57684C21.8539 6.52575 22.3829 7.05476 22.3319 7.68891L25.7624 7.96529C25.9837 5.21734 23.6913 2.9249 20.9434 3.14628L21.2198 6.57684ZM17.3637 5.02375C18.2957 6.11897 19.6971 6.6995 21.1306 6.58402L20.8541 3.15346C20.5233 3.18012 20.1999 3.04614 19.9849 2.7934L17.3637 5.02375ZM19.9268 2.72524C18.1403 0.625606 14.8983 0.625603 13.1118 2.72524L15.7329 4.95558C16.1453 4.47104 16.8933 4.47104 17.3056 4.95558L19.9268 2.72524ZM15.675 19.7549C14.8643 18.8022 13.6985 18.239 12.4654 18.1845L12.3133 21.6229C12.5977 21.6354 12.8668 21.7655 13.0538 21.9852L15.675 19.7549ZM12.4654 18.1845C12.2807 18.1764 12.0946 18.1796 11.9081 18.1946L12.1845 21.6252C12.2278 21.6216 12.2707 21.6209 12.3133 21.6229L12.4654 18.1845ZM14.1101 30.286V19.9037H10.6685V30.286H14.1101ZM21.1306 18.1946C20.944 18.1796 20.7579 18.1764 20.5733 18.1845L20.7254 21.6229C20.7678 21.6209 20.8109 21.6216 20.8541 21.6252L21.1306 18.1946ZM20.5733 18.1845C19.3401 18.239 18.1743 18.8022 17.3636 19.7549L19.9849 21.9852C20.1719 21.7655 20.4409 21.6354 20.7254 21.6229L20.5733 18.1845ZM18.9285 19.9037V30.286H22.3701V19.9037H18.9285Z" fill="#64FF6A"/>
<path d="M13.0538 2.7934L13.4998 2.26915L12.6077 3.31764L13.0538 2.7934ZM7.28347 16.7241L7.33873 16.038L7.22818 17.4102L7.28347 16.7241ZM9.15374 13.2337L9.67799 13.6797L8.6295 12.7876L9.15374 13.2337ZM10.7068 17.0896L10.6516 17.7758L10.7621 16.4035L10.7068 17.0896ZM15.675 19.7549L16.1211 20.2791L15.2289 19.2306L15.675 19.7549ZM19.9268 22.0534L19.4808 22.5776L20.3729 21.5291L19.9268 22.0534ZM13.1118 22.0534L12.6657 21.5291L13.5578 22.5776L13.1118 22.0534ZM26.1152 15.8549L25.591 16.301L26.6395 15.4089L26.1152 15.8549ZM26.1834 8.98176L26.7076 9.42782L25.6591 8.53569L26.1834 8.98176ZM23.953 13.1757L24.4772 12.7296L23.4288 13.6217L23.953 13.1757ZM23.8849 11.545L23.3606 11.0989L24.4091 11.991L23.8849 11.545ZM11.3602 4.81346L11.222 6.52875L12.5942 6.6393L12.7324 4.92401L11.3602 4.81346ZM14.8105 3.38432L13.4998 2.26915L12.6077 3.31764L13.9183 4.43281L14.8105 3.38432ZM8.93628 7.14099L7.22101 7.27918L7.33156 8.6514L9.04683 8.51321L8.93628 7.14099ZM12.6432 4.91683L12.7814 3.20155L11.4092 3.091L11.271 4.80627L12.6432 4.91683ZM7.51433 10.6804L8.6295 11.991L9.67798 11.0989L8.56281 9.7883L7.51433 10.6804ZM9.05402 8.60242L10.7693 8.46423L10.6588 7.09201L8.94347 7.2302L9.05402 8.60242ZM7.44618 14.0402L6.33101 15.3507L7.37948 16.2429L8.49465 14.9323L7.44618 14.0402ZM8.49466 9.84629L7.3795 8.53569L6.33102 9.42781L7.44617 10.7384L8.49466 9.84629ZM9.05403 16.1762L7.33876 16.038L7.22818 17.4102L8.94346 17.5485L9.05403 16.1762ZM8.56282 14.9904L9.67799 13.6797L8.62949 12.7876L7.51432 14.0983L8.56282 14.9904ZM11.271 19.9723L11.4092 21.6876L12.7814 21.5771L12.6432 19.8618L11.271 19.9723ZM8.93632 17.6377L10.6516 17.7758L10.7621 16.4035L9.04679 16.2655L8.93632 17.6377ZM14.8105 21.3943L16.1211 20.2791L15.2289 19.2306L13.9183 20.3459L14.8105 21.3943ZM12.7324 19.8546L12.5942 18.1393L11.222 18.2498L11.3602 19.9652L12.7324 19.8546ZM18.1702 21.4625L19.4808 22.5776L20.3729 21.5291L19.0623 20.414L18.1702 21.4625ZM13.9763 20.414L12.6657 21.5291L13.5578 22.5776L14.8684 21.4625L13.9763 20.414ZM21.6785 19.9652L21.8167 18.2498L20.4445 18.1393L20.3062 19.8546L21.6785 19.9652ZM19.1204 20.3459L17.8097 19.2306L16.9175 20.2791L18.2283 21.3944L19.1204 20.3459ZM24.1023 17.6377L25.8177 17.4995L25.7071 16.1272L23.9918 16.2655L24.1023 17.6377ZM20.3955 19.8618L20.2572 21.5771L21.6295 21.6877L21.7677 19.9723L20.3955 19.8618ZM24.4759 14.9904L25.591 16.301L26.6395 15.4089L25.5244 14.0983L24.4759 14.9904ZM23.9846 16.1762L22.2693 16.3145L22.3798 17.6867L24.0952 17.5485L23.9846 16.1762ZM25.5925 10.7384L26.7076 9.42782L25.6591 8.53571L24.544 9.8463L25.5925 10.7384ZM25.5925 14.0401L24.4772 12.7296L23.4288 13.6218L24.544 14.9323L25.5925 14.0401ZM24.0952 7.2302L22.3798 7.09201L22.2693 8.46423L23.9846 8.60242L24.0952 7.2302ZM24.4759 9.78828L23.3607 11.0989L24.4091 11.991L25.5243 10.6805L24.4759 9.78828ZM21.7677 4.80626L21.6295 3.09099L20.2572 3.20156L20.3955 4.91684L21.7677 4.80626ZM23.9918 8.51321L25.7071 8.6514L25.8176 7.27918L24.1023 7.14099L23.9918 8.51321ZM19.1204 4.4328L20.431 3.31763L19.5388 2.26916L18.2283 3.38433L19.1204 4.4328ZM20.3062 4.92402L20.4445 6.63931L21.8167 6.52874L21.6785 4.81345L20.3062 4.92402ZM18.1702 3.31617L16.8596 4.43134L17.7517 5.47981L19.0623 4.36464L18.1702 3.31617ZM13.9763 4.36464L15.2869 5.47981L16.179 4.43134L14.8684 3.31617L13.9763 4.36464ZM13.077 19.9341L13.153 18.2149L11.7777 18.1541L11.7017 19.8733L13.077 19.9341ZM17.8098 5.54798L20.431 3.31763L19.5388 2.26916L16.9177 4.49951L17.8098 5.54798ZM19.4807 2.201L16.8596 4.43134L17.7517 5.47981L20.3729 3.24947L19.4807 2.201ZM21.9059 6.52155L21.6295 3.09099L20.2572 3.20156L20.5337 6.63212L21.9059 6.52155ZM20.168 3.20875L20.4445 6.63931L21.8167 6.52874L21.5403 3.09818L20.168 3.20875ZM22.2693 8.46423L25.6999 8.74061L25.8105 7.36839L22.3798 7.09201L22.2693 8.46423ZM25.8176 7.27918L22.3871 7.0028L22.2766 8.37502L25.7071 8.6514L25.8176 7.27918ZM24.4773 12.049L26.7076 9.42783L25.6591 8.53569L23.4288 11.1569L24.4773 12.049ZM25.591 8.4777L23.3606 11.0989L24.4091 11.991L26.6394 9.36983L25.591 8.4777ZM23.3606 13.6797L25.591 16.301L26.6395 15.4088L24.4091 12.7876L23.3606 13.6797ZM26.7076 15.3507L24.4773 12.7296L23.4288 13.6217L25.6591 16.2429L26.7076 15.3507ZM22.3871 17.7759L25.8177 17.4995L25.7071 16.1272L22.2766 16.4037L22.3871 17.7759ZM25.6999 16.038L22.2693 16.3145L22.3798 17.6867L25.8105 17.4102L25.6999 16.038ZM20.4445 18.1393L20.168 21.5699L21.5403 21.6805L21.8167 18.2498L20.4445 18.1393ZM21.6295 21.6877L21.9059 18.2571L20.5337 18.1466L20.2572 21.5771L21.6295 21.6877ZM16.8596 20.3473L19.4807 22.5776L20.3729 21.5291L17.7517 19.2988L16.8596 20.3473ZM20.431 21.461L17.8097 19.2306L16.9175 20.2791L19.5389 22.5095L20.431 21.461ZM15.2289 19.2306L12.6077 21.461L13.4998 22.5095L16.121 20.2791L15.2289 19.2306ZM13.5578 22.5776L16.179 20.3473L15.2869 19.2988L12.6657 21.5291L13.5578 22.5776ZM11.1328 18.2571L11.4092 21.6876L12.7814 21.5771L12.505 18.1466L11.1328 18.2571ZM12.8706 21.5699L12.5942 18.1393L11.222 18.2498L11.4984 21.6805L12.8706 21.5699ZM10.7693 16.3143L7.33873 16.038L7.22821 17.4102L10.6588 17.6865L10.7693 16.3143ZM7.22103 17.4995L10.6516 17.7758L10.7621 16.4035L7.33154 16.1272L7.22103 17.4995ZM8.56135 12.7296L6.33101 15.3507L7.37948 16.2429L9.60982 13.6217L8.56135 12.7296ZM7.44766 16.301L9.67799 13.6797L8.6295 12.7876L6.39917 15.4088L7.44766 16.301ZM9.67798 11.0989L7.44766 8.47769L6.39918 9.36981L8.6295 11.991L9.67798 11.0989ZM6.33102 9.42781L8.56134 12.049L9.60982 11.1569L7.3795 8.53568L6.33102 9.42781ZM10.6516 7.0028L7.22101 7.27918L7.33156 8.6514L10.7621 8.37502L10.6516 7.0028ZM7.33875 8.74061L10.7693 8.46423L10.6588 7.09201L7.2282 7.36839L7.33875 8.74061ZM12.5942 6.6393L12.8706 3.20874L11.4984 3.09819L11.222 6.52875L12.5942 6.6393ZM11.4092 3.091L11.1328 6.52156L12.505 6.63211L12.7814 3.20155L11.4092 3.091ZM16.179 4.43134L13.5578 2.201L12.6657 3.24947L15.2869 5.47981L16.179 4.43134ZM12.6077 3.31764L15.2289 5.54798L16.121 4.49949L13.4998 2.26916L12.6077 3.31764ZM11.7777 18.1541L11.6256 21.5925L13.0009 21.6533L13.153 18.2149L11.7777 18.1541ZM19.8856 18.2149L20.0378 21.6533L21.4131 21.5924L21.261 18.1541L19.8856 18.2149ZM20.6493 30.286V28.9093H19.9125L19.5038 29.5223L20.6493 30.286ZM19.6947 31.7178L18.9311 32.8633L18.9311 32.8633L19.6947 31.7178ZM21.4613 31.8032L20.8118 30.5894L20.8117 30.5894L21.4613 31.8032ZM16.5193 27.5326L15.3739 28.2963L16.5193 30.0143L17.6647 28.2963L16.5193 27.5326ZM12.3893 30.286L13.5348 29.5223L13.1261 28.9093H12.3893V30.286ZM11.5773 31.8032L10.9278 33.017L10.9278 33.017L11.5773 31.8032ZM13.3439 31.7178L14.1075 32.8633L14.1075 32.8633L13.3439 31.7178ZM11.9081 6.58402L12.0187 5.2118L12.0187 5.2118L11.9081 6.58402ZM13.0538 2.7934L12.0053 1.90122L12.0053 1.90124L13.0538 2.7934ZM7.27629 7.96529L8.64851 7.85475L8.64851 7.85474L7.27629 7.96529ZM12.0953 3.14628L11.9847 4.5185L11.9848 4.5185L12.0953 3.14628ZM9.15374 11.545L10.0458 12.5935L10.0459 12.5934L9.15374 11.545ZM10.714 7.77812L9.34181 7.88865L9.34181 7.88866L10.714 7.77812ZM6.85525 15.7968L7.74817 14.749L7.74737 14.7483L6.85525 15.7968ZM6.85526 8.98175L7.74739 10.0302L7.74743 10.0302L6.85526 8.98175ZM7.28347 16.7241L5.91125 16.6136L5.91125 16.6136L7.28347 16.7241ZM9.15374 13.2337L8.26158 14.2821L8.26159 14.2821L9.15374 13.2337ZM12.0953 21.6324L11.9852 20.2601L11.9847 20.2601L12.0953 21.6324ZM10.7068 17.0896L9.33462 16.9791L9.33462 16.9791L10.7068 17.0896ZM15.675 19.7549L16.7237 18.863L16.7234 18.8627L15.675 19.7549ZM11.9081 18.1946L11.7977 16.8223L11.7959 16.8225L11.9081 18.1946ZM19.9268 22.0534L18.8792 21.1602L18.8783 21.1612L19.9268 22.0534ZM13.1118 22.0534L14.1603 21.1612L14.1601 21.1611L13.1118 22.0534ZM21.1306 18.1946L21.2428 16.8225L21.241 16.8223L21.1306 18.1946ZM17.3636 19.7549L16.3152 18.8627L16.3149 18.863L17.3636 19.7549ZM25.7624 16.8133L24.3901 16.9235L24.3902 16.9239L25.7624 16.8133ZM20.9434 21.6324L21.0539 20.2601L21.0535 20.2601L20.9434 21.6324ZM26.1152 15.8549L27.0073 16.9035L27.0083 16.9025L26.1152 15.8549ZM22.3246 17.0006L20.9523 17.111L20.9525 17.1128L22.3246 17.0006ZM26.1834 8.98176L25.2911 10.0301L25.2912 10.0303L26.1834 8.98176ZM23.953 13.1757L23.0609 12.1271L23.0607 12.1273L23.953 13.1757ZM22.3246 7.77812L20.9525 7.66588L20.9523 7.66767L22.3246 7.77812ZM23.8849 11.545L24.7772 10.4966L24.777 10.4965L23.8849 11.545ZM20.9434 3.14628L21.0539 4.5185L21.0539 4.5185L20.9434 3.14628ZM25.7624 7.96529L24.3902 7.85474L24.3901 7.85518L25.7624 7.96529ZM19.9849 2.7934L21.0334 1.90131L21.0326 1.90037L19.9849 2.7934ZM21.1306 6.58402L21.2411 7.95624L21.2411 7.95624L21.1306 6.58402ZM17.3056 4.95558L16.2572 5.84775L16.2578 5.8485L17.3056 4.95558ZM15.7329 4.95558L14.6845 4.0634L14.6842 4.06378L15.7329 4.95558ZM12.4654 18.1845L12.5262 16.8092L12.5259 16.8092L12.4654 18.1845ZM21.6039 28.8542L22.7493 29.6179L23.513 28.4724L22.3675 27.7088L21.6039 28.8542ZM15.5647 28.9645L14.4193 28.2008L13.6556 29.3463L14.8011 30.11L15.5647 28.9645ZM11.4348 28.8542L10.6711 27.7088L9.52567 28.4724L10.2893 29.6179L11.4348 28.8542ZM17.4739 28.9645L18.2375 30.11L19.383 29.3463L18.6193 28.2008L17.4739 28.9645ZM17.3637 5.02375L18.4122 4.13156L18.4115 4.13083L17.3637 5.02375ZM19.9268 2.72524L18.8783 3.61736L18.8791 3.61827L19.9268 2.72524ZM21.2198 6.57684L21.3303 7.94906L21.3303 7.94906L21.2198 6.57684ZM20.8541 3.15346L20.7436 1.78124L20.7436 1.78124L20.8541 3.15346ZM22.3319 7.68891L23.7039 7.80114L23.7041 7.79943L22.3319 7.68891ZM25.7552 8.0545L27.1274 8.16529L27.1275 8.1646L25.7552 8.0545ZM23.953 11.603L23.0607 12.6513L23.0609 12.6515L23.953 11.603ZM26.1152 8.92376L27.0075 7.87541L27.0073 7.87528L26.1152 8.92376ZM23.8849 13.2337L24.777 14.2822L24.7771 14.282L23.8849 13.2337ZM26.1834 15.7968L25.2912 14.7483L25.2902 14.7492L26.1834 15.7968ZM22.3319 17.0898L23.7041 16.9793L23.7039 16.9775L22.3319 17.0898ZM25.7552 16.7241L27.1275 16.614L27.1274 16.6134L25.7552 16.7241ZM21.2198 18.2019L21.1076 19.5739L21.1093 19.5741L21.2198 18.2019ZM20.8541 21.6252L20.7405 22.9972L20.744 22.9975L20.8541 21.6252ZM17.3056 19.823L18.3541 20.7151L18.3543 20.7149L17.3056 19.823ZM19.9849 21.9852L21.0325 22.8783L21.0334 22.8773L19.9849 21.9852ZM15.7329 19.823L14.6843 20.7149L14.6844 20.7151L15.7329 19.823ZM13.0538 21.9852L12.0053 22.8774L12.0054 22.8775L13.0538 21.9852ZM11.8189 18.2019L11.9294 19.5741L11.9311 19.5739L11.8189 18.2019ZM12.1845 21.6252L12.2946 22.9975L12.298 22.9972L12.1845 21.6252ZM10.714 17.0004L12.0862 17.111L12.0862 17.111L10.714 17.0004ZM7.27629 16.8133L8.64851 16.9239L8.64851 16.9239L7.27629 16.8133ZM9.08558 13.1757L9.97774 12.1272L9.97772 12.1272L9.08558 13.1757ZM6.92342 15.8549L6.03049 16.9027L6.03133 16.9034L6.92342 15.8549ZM9.08558 11.603L8.19354 10.5544L8.19344 10.5545L9.08558 11.603ZM6.92342 8.92375L6.03126 7.87529L6.03125 7.8753L6.92342 8.92375ZM10.7068 7.68891L12.0791 7.57837L12.0791 7.57836L10.7068 7.68891ZM7.28347 8.0545L5.91125 8.16503L5.91125 8.16506L7.28347 8.0545ZM11.8189 6.57684L11.7084 7.94906L11.7084 7.94906L11.8189 6.57684ZM12.1845 3.15346L12.2951 1.78124L12.295 1.78124L12.1845 3.15346ZM15.675 5.02374L16.7235 5.91585L16.7237 5.91553L15.675 5.02374ZM13.1118 2.72524L14.1602 3.61741L14.1603 3.61736L13.1118 2.72524ZM12.3133 21.6229L12.2509 22.9981L12.2527 22.9982L12.3133 21.6229ZM14.1101 30.286V31.6626H15.4868V30.286H14.1101ZM14.1101 19.9037H15.4868V18.527H14.1101V19.9037ZM10.6685 19.9037V18.527H9.29182V19.9037H10.6685ZM20.5733 18.1845L20.5128 16.8092L20.5125 16.8092L20.5733 18.1845ZM20.7254 21.6229L20.786 22.9982L20.7879 22.9981L20.7254 21.6229ZM18.9285 19.9037V18.527H17.5518V19.9037H18.9285ZM18.9285 30.286H17.5518V31.6626H18.9285V30.286ZM22.3701 19.9037H23.7468V18.527H22.3701V19.9037ZM19.5038 29.5223L18.5493 30.9542L20.8402 32.4815L21.7947 31.0496L19.5038 29.5223ZM18.9311 32.8633C19.8817 33.4969 21.1038 33.5559 22.1108 33.017L20.8117 30.5894C20.6998 30.6493 20.5639 30.6428 20.4583 30.5723L18.9311 32.8633ZM22.1107 33.017C23.1182 32.478 23.7468 31.4282 23.7468 30.286H20.9935C20.9935 30.413 20.9236 30.5295 20.8118 30.5894L22.1107 33.017ZM22.3701 28.9093H20.6493V31.6626H22.3701V28.9093ZM17.6647 28.2963L18.6193 26.8646L16.3285 25.3372L15.3739 26.7689L17.6647 28.2963ZM18.2376 24.9555C17.1971 24.2617 15.8415 24.2617 14.8009 24.9555L16.3285 27.2463C16.4441 27.1692 16.5945 27.1692 16.7101 27.2463L18.2376 24.9555ZM14.4193 26.8646L15.3739 28.2963L17.6647 26.7689L16.7101 25.3372L14.4193 26.8646ZM12.3893 28.9093H10.6685V31.6626H12.3893V28.9093ZM9.29182 30.286C9.29182 31.4283 9.92052 32.478 10.9278 33.017L12.2269 30.5894C12.1151 30.5296 12.0452 30.4129 12.0452 30.286H9.29182ZM10.9278 33.017C11.9349 33.5559 13.1569 33.497 14.1075 32.8633L12.5803 30.5724C12.4747 30.6427 12.3389 30.6493 12.2269 30.5894L10.9278 33.017ZM14.4893 30.9542L13.5348 29.5223L11.2438 31.0496L12.1984 32.4814L14.4893 30.9542ZM22.3675 27.7088L18.2375 24.9554L16.7102 27.2463L20.8402 29.9997L22.3675 27.7088ZM16.3284 25.3372L14.4193 28.2008L16.7102 29.7282L18.6193 26.8646L16.3284 25.3372ZM14.8011 30.11L18.9311 32.8633L20.4584 30.5724L16.3283 27.819L14.8011 30.11ZM20.8402 32.4815L22.7493 29.6179L20.4584 28.0906L18.5493 30.9542L20.8402 32.4815ZM14.8011 24.9554L10.6711 27.7088L12.1984 29.9997L16.3284 27.2463L14.8011 24.9554ZM10.2893 29.6179L12.1984 32.4815L14.4893 30.9542L12.5802 28.0906L10.2893 29.6179ZM14.1075 32.8633L18.2375 30.11L16.7102 27.819L12.5802 30.5724L14.1075 32.8633ZM18.6193 28.2008L16.7102 25.3372L14.4193 26.8646L16.3284 29.7282L18.6193 28.2008ZM16.2578 5.8485L16.3159 5.91667L18.4115 4.13083L18.3535 4.06265L16.2578 5.8485ZM21.0326 1.90037L20.9745 1.83221L18.8791 3.61827L18.9372 3.68642L21.0326 1.90037ZM21.2411 7.95624L21.3303 7.94906L21.1092 5.20461L21.02 5.2118L21.2411 7.95624ZM20.8328 1.77406L20.7436 1.78124L20.9647 4.52569L21.0539 4.5185L20.8328 1.77406ZM20.9598 7.57667L20.9525 7.66588L23.6966 7.89035L23.7039 7.80114L20.9598 7.57667ZM27.1275 8.1646L27.1346 8.07539L24.3901 7.85518L24.383 7.94439L27.1275 8.1646ZM22.9926 12.5933L23.0607 12.6513L24.8453 10.5546L24.7772 10.4966L22.9926 12.5933ZM27.0756 7.93341L27.0075 7.87541L25.2229 9.97212L25.2911 10.0301L27.0756 7.93341ZM23.0607 12.1273L22.9926 12.1853L24.7771 14.282L24.8453 14.224L23.0607 12.1273ZM27.0083 16.9025L27.0765 16.8444L25.2902 14.7492L25.2221 14.8073L27.0083 16.9025ZM20.9525 17.1128L20.9598 17.202L23.7039 16.9775L23.6966 16.8883L20.9525 17.1128ZM27.1346 16.7032L27.1275 16.614L24.383 16.8342L24.3901 16.9235L27.1346 16.7032ZM21.332 16.8298L21.2428 16.8225L21.0183 19.5666L21.1076 19.5739L21.332 16.8298ZM20.744 22.9975L20.8332 23.0046L21.0535 20.2601L20.9642 20.253L20.744 22.9975ZM16.3149 18.863L16.257 18.9311L18.3543 20.7149L18.4123 20.6468L16.3149 18.863ZM20.9744 22.9465L21.0325 22.8783L18.9373 21.0921L18.8792 21.1602L20.9744 22.9465ZM16.7816 18.9311L16.7237 18.863L14.6263 20.6468L14.6843 20.7149L16.7816 18.9311ZM12.0054 22.8775L12.0634 22.9456L14.1601 21.1611L14.1021 21.0929L12.0054 22.8775ZM11.7959 16.8225L11.7067 16.8298L11.9311 19.5739L12.0204 19.5666L11.7959 16.8225ZM12.2054 23.0046L12.2946 22.9975L12.0744 20.253L11.9852 20.2601L12.2054 23.0046ZM12.0791 17.2002L12.0862 17.111L9.34181 16.8899L9.33462 16.9791L12.0791 17.2002ZM5.91125 16.6136L5.90406 16.7028L8.64851 16.9239L8.65569 16.8347L5.91125 16.6136ZM10.0459 12.1852L9.97774 12.1272L8.19342 14.2241L8.26158 14.2821L10.0459 12.1852ZM5.96232 16.8446L6.0305 16.9027L7.81634 14.8071L7.74817 14.749L5.96232 16.8446ZM9.97763 12.6515L10.0458 12.5935L8.2617 10.4964L8.19354 10.5544L9.97763 12.6515ZM6.03125 7.8753L5.96309 7.9333L7.74743 10.0302L7.81559 9.9722L6.03125 7.8753ZM12.0862 7.66758L12.0791 7.57837L9.33462 7.79945L9.34181 7.88865L12.0862 7.66758ZM5.90406 8.07583L5.91125 8.16503L8.65569 7.94396L8.64851 7.85475L5.90406 8.07583ZM11.7084 7.94906L11.7976 7.95624L12.0187 5.2118L11.9295 5.20461L11.7084 7.94906ZM12.295 1.78124L12.2058 1.77406L11.9848 4.5185L12.074 4.52569L12.295 1.78124ZM16.7237 5.91553L16.7817 5.84737L14.6842 4.06378L14.6262 4.13194L16.7237 5.91553ZM12.0633 1.83306L12.0053 1.90122L14.1022 3.68557L14.1602 3.61741L12.0633 1.83306ZM11.7976 7.95624C13.672 8.10725 15.5049 7.3481 16.7235 5.91585L14.6265 4.13162C13.9814 4.88982 13.011 5.29175 12.0187 5.2118L11.7976 7.95624ZM12.0053 1.90124C12.077 1.81704 12.1848 1.77236 12.2951 1.78124L12.0739 4.52568C12.8458 4.58788 13.6005 4.27523 14.1022 3.68555L12.0053 1.90124ZM12.0791 7.57836C12.0961 7.78973 11.9197 7.96609 11.7084 7.94906L11.9295 5.20462C10.4498 5.08541 9.21542 6.31979 9.33462 7.79946L12.0791 7.57836ZM12.2058 1.77406C8.61237 1.48456 5.61457 4.48236 5.90406 8.07584L8.64851 7.85474C8.49524 5.95231 10.0823 4.36523 11.9847 4.5185L12.2058 1.77406ZM10.0459 12.5934C11.4781 11.3748 12.2373 9.54201 12.0862 7.66757L9.34181 7.88866C9.42175 8.88102 9.01984 9.85132 8.26161 10.4965L10.0459 12.5934ZM5.91125 8.16506C5.90237 8.05478 5.94705 7.94695 6.03126 7.87529L7.81557 9.97221C8.40527 9.47042 8.71788 8.71579 8.65569 7.94393L5.91125 8.16506ZM9.97772 12.1272C10.1392 12.2646 10.1392 12.514 9.97772 12.6514L8.19344 10.5545C7.06288 11.5165 7.06288 13.2622 8.19344 14.2241L9.97772 12.1272ZM5.96313 7.93327C3.21746 10.2695 3.21741 14.5091 5.96312 16.8453L7.74737 14.7483C6.2938 13.5115 6.29379 11.2671 7.74739 10.0302L5.96313 7.93327ZM12.0862 17.111C12.2373 15.2364 11.4781 13.4038 10.0459 12.1852L8.26159 14.2821C9.01987 14.9274 9.42175 15.8975 9.34181 16.8899L12.0862 17.111ZM6.03133 16.9034C5.94704 16.8317 5.90237 16.7238 5.91125 16.6136L8.65569 16.8347C8.71788 16.0628 8.40528 15.3082 7.81551 14.8064L6.03133 16.9034ZM11.7084 16.8296C11.9199 16.8126 12.0961 16.989 12.0791 17.2002L9.33462 16.9791C9.21544 18.4587 10.4496 19.6933 11.9294 19.5741L11.7084 16.8296ZM5.90406 16.7028C5.61457 20.2963 8.61237 23.2941 12.2058 23.0046L11.9847 20.2601C10.0823 20.4134 8.49524 18.8263 8.64851 16.9239L5.90406 16.7028ZM16.2572 18.9309C16.3945 18.7694 16.644 18.7694 16.7814 18.9309L14.6844 20.7151C15.6465 21.8458 17.3921 21.8458 18.3541 20.7151L16.2572 18.9309ZM12.0633 22.9455C14.3995 25.6912 18.6391 25.6912 20.9753 22.9455L18.8783 21.1612C17.6415 22.6149 15.397 22.6149 14.1603 21.1612L12.0633 22.9455ZM20.9596 17.2003C20.9426 16.989 21.119 16.8126 21.3303 16.8296L21.1093 19.5741C22.589 19.6932 23.8232 18.459 23.7041 16.9793L20.9596 17.2003ZM20.8328 23.0046C24.4263 23.2941 27.4241 20.2963 27.1346 16.7028L24.3902 16.9239C24.5434 18.8263 22.9563 20.4134 21.0539 20.2601L20.8328 23.0046ZM22.9927 12.1852C21.5604 13.4039 20.8015 15.2366 20.9523 17.111L23.6968 16.8901C23.6169 15.8975 24.0188 14.9273 24.777 14.2822L22.9927 12.1852ZM27.1274 16.6134C27.1363 16.7237 27.0916 16.8317 27.0073 16.9035L25.2232 14.8064C24.6333 15.3082 24.3207 16.0629 24.383 16.8349L27.1274 16.6134ZM23.0609 12.6515C22.8994 12.514 22.8994 12.2646 23.0609 12.1271L24.8451 14.2242C25.9758 13.2622 25.9758 11.5164 24.8451 10.5544L23.0609 12.6515ZM27.0755 16.8453C29.8212 14.5091 29.8212 10.2695 27.0755 7.93327L25.2912 10.0303C26.7449 11.2671 26.7449 13.5115 25.2912 14.7483L27.0755 16.8453ZM20.9523 7.66767C20.8015 9.54196 21.5604 11.3747 22.9928 12.5935L24.777 10.4965C24.0188 9.85135 23.6169 8.88107 23.6968 7.88856L20.9523 7.66767ZM27.0073 7.87528C27.0916 7.94698 27.1363 8.05489 27.1274 8.16529L24.383 7.94371C24.3207 8.71567 24.6333 9.47042 25.2231 9.97225L27.0073 7.87528ZM21.3303 7.94906C21.1189 7.96609 20.9426 7.78975 20.9596 7.57839L23.7041 7.79943C23.8233 6.31977 22.5888 5.08541 21.1092 5.20462L21.3303 7.94906ZM27.1346 8.07583C27.4241 4.48237 24.4263 1.48456 20.8328 1.77406L21.0539 4.5185C22.9563 4.36523 24.5434 5.9523 24.3902 7.85474L27.1346 8.07583ZM16.3153 5.91594C17.534 7.34806 19.3665 8.10725 21.2411 7.95624L21.02 5.2118C20.0276 5.29174 19.0575 4.88988 18.4122 4.13156L16.3153 5.91594ZM20.7436 1.78124C20.8539 1.77236 20.9617 1.81705 21.0334 1.90131L18.9364 3.68548C19.4382 4.27522 20.1928 4.58787 20.9647 4.52568L20.7436 1.78124ZM20.9753 1.83312C18.6391 -0.912575 14.3995 -0.91258 12.0633 1.83312L14.1603 3.61736C15.397 2.16379 17.6415 2.16379 18.8783 3.61736L20.9753 1.83312ZM16.7814 5.84775C16.644 6.00921 16.3946 6.00921 16.2572 5.84775L18.3541 4.0634C17.3921 2.93288 15.6465 2.93288 14.6845 4.0634L16.7814 5.84775ZM16.7234 18.8627C15.6632 17.6169 14.1388 16.8805 12.5262 16.8092L12.4046 19.5598C13.2582 19.5976 14.0653 19.9875 14.6266 20.6471L16.7234 18.8627ZM12.2527 22.9982C12.1572 22.994 12.0676 22.9506 12.0053 22.8774L14.1022 21.093C13.666 20.5804 13.0383 20.2768 12.3738 20.2475L12.2527 22.9982ZM12.5259 16.8092C12.2849 16.7986 12.0417 16.8027 11.7977 16.8223L12.0185 19.5668C12.1474 19.5564 12.2764 19.5542 12.4049 19.5598L12.5259 16.8092ZM12.298 22.9972C12.281 22.9986 12.2652 22.9988 12.2509 22.9981L12.3756 20.2476C12.2763 20.2431 12.1745 20.2447 12.071 20.2532L12.298 22.9972ZM15.4868 30.286V19.9037H12.7335V30.286H15.4868ZM14.1101 18.527H10.6685V21.2804H14.1101V18.527ZM9.29182 19.9037V30.286H12.0452V19.9037H9.29182ZM10.6685 31.6626H14.1101V28.9093H10.6685V31.6626ZM21.241 16.8223C20.9969 16.8027 20.7537 16.7986 20.5128 16.8092L20.6338 19.5598C20.7621 19.5542 20.8912 19.5564 21.0202 19.5668L21.241 16.8223ZM20.7879 22.9981C20.7734 22.9988 20.7576 22.9986 20.7405 22.9972L20.9677 20.2532C20.8642 20.2447 20.7622 20.2431 20.6629 20.2476L20.7879 22.9981ZM20.5125 16.8092C18.8998 16.8805 17.3754 17.6169 16.3152 18.8627L18.412 20.6471C18.9733 19.9875 19.7804 19.5976 20.6341 19.5598L20.5125 16.8092ZM21.0334 22.8773C20.9711 22.9506 20.8814 22.994 20.786 22.9982L20.6649 20.2475C20.0003 20.2768 19.3726 20.5804 18.9364 21.0931L21.0334 22.8773ZM17.5518 19.9037V30.286H20.3051V19.9037H17.5518ZM18.9285 31.6626H22.3701V28.9093H18.9285V31.6626ZM23.7468 30.286V19.9037H20.9935V30.286H23.7468ZM22.3701 18.527H18.9285V21.2804H22.3701V18.527Z" fill="#64FF6A" mask="url(#path-2-inside-1_2261_20)"/>
<path d="M19.2727 11.0126L15.1427 15.1426L13.766 13.7659" stroke="#64FF6A" stroke-width="3.44167" stroke-linecap="round" stroke-linejoin="round"/>
</g>
</svg>
