<svg width="24" height="24" viewBox="0 0 24 24" fill="none" xmlns="http://www.w3.org/2000/svg">
<path d="M21.4961 5.76093L18.8228 4.21742L17.2796 1.54449H14.1931L11.5198 0.000976562L8.84644 1.54449H5.75988L4.21637 4.21782L1.54351 5.76093V8.84748L0 11.5208L1.54351 14.1941V17.2807L4.21684 18.8242L5.76035 21.4975H8.8469L11.5198 23.0406L14.1932 21.4971H17.2797L18.8232 18.8238L21.4966 17.2803V14.1937L23.0401 11.5204L21.4966 8.84708L21.4961 5.76093ZM10.48 16.2358C10.2653 16.4506 9.98226 16.555 9.70054 16.551C9.41876 16.555 9.13584 16.4506 8.92104 16.2358L5.5519 12.8666C5.12985 12.4446 5.12985 11.7599 5.5519 11.3379L6.44381 10.446C6.86585 10.0239 7.55051 10.0239 7.97256 10.446L9.70054 12.1739L15.0667 6.80739C15.4887 6.38534 16.1734 6.38534 16.5955 6.80739L17.4874 7.6993C17.9094 8.12134 17.9094 8.80601 17.4874 9.22805L10.48 16.2358Z" fill="#64FF6A"/>
</svg>
