<svg width="80" height="80" viewBox="0 0 80 80" fill="none" xmlns="http://www.w3.org/2000/svg">
<g clip-path="url(#clip0_2263_65)">
<path d="M76.6667 40C76.6807 37.0723 76.0966 34.1726 74.9503 31.4787C73.8039 28.7847 72.1194 26.3533 70 24.3334V11.6667C70 10.7827 69.6488 9.93481 69.0237 9.30968C68.3986 8.68456 67.5508 8.33337 66.6667 8.33337H6.66671C5.78265 8.33337 4.93481 8.68456 4.30968 9.30968C3.68456 9.93481 3.33337 10.7827 3.33337 11.6667V68.3334C3.33337 69.2174 3.68456 70.0653 4.30968 70.6904C4.93481 71.3155 5.78265 71.6667 6.66671 71.6667H43.3334V74.3334C43.3334 77.6667 46.6667 79.5001 48.8334 77.3334L55 71.6667L61.1667 77.3334C63.3334 79.5001 66.6667 77.6667 66.6667 74.3334V58.1667C69.7301 56.2274 72.2533 53.5449 74.0017 50.3687C75.7501 47.1925 76.6668 43.6257 76.6667 40ZM55 25C57.9668 25 60.8669 25.8798 63.3336 27.528C65.8003 29.1762 67.7229 31.5189 68.8582 34.2598C69.9935 37.0007 70.2906 40.0167 69.7118 42.9264C69.133 45.8361 67.7044 48.5089 65.6066 50.6066C63.5088 52.7044 60.8361 54.133 57.9264 54.7118C55.0167 55.2906 52.0007 54.9936 49.2598 53.8582C46.5189 52.7229 44.1762 50.8003 42.528 48.3336C40.8798 45.8669 40 42.9668 40 40C40 36.0218 41.5804 32.2065 44.3934 29.3934C47.2065 26.5804 51.0218 25 55 25ZM20 23.3334H41.1667L38.3334 26.1667C37.3486 27.3391 36.5092 28.6262 35.8334 30H20C19.116 30 18.2681 29.6489 17.643 29.0237C17.0179 28.3986 16.6667 27.5508 16.6667 26.6667C16.6667 25.7827 17.0179 24.9348 17.643 24.3097C18.2681 23.6846 19.116 23.3334 20 23.3334ZM20 36.6667H33.6667C33.3834 37.7538 33.271 38.8784 33.3334 40C33.2787 41.1215 33.3911 42.2449 33.6667 43.3334H20C19.116 43.3334 18.2681 42.9822 17.643 42.3571C17.0179 41.7319 16.6667 40.8841 16.6667 40C16.6667 39.116 17.0179 38.2681 17.643 37.643C18.2681 37.0179 19.116 36.6667 20 36.6667ZM20 56.6667C19.116 56.6667 18.2681 56.3155 17.643 55.6904C17.0179 55.0653 16.6667 54.2174 16.6667 53.3334C16.6667 52.4493 17.0179 51.6015 17.643 50.9764C18.2681 50.3512 19.116 50 20 50H35.8334C36.5092 51.3739 37.3486 52.661 38.3334 53.8334C39.193 54.859 40.1411 55.8071 41.1667 56.6667H20Z" fill="#64FF6A"/>
<path d="M55.0001 48.3334C59.6024 48.3334 63.3334 44.6024 63.3334 40.0001C63.3334 35.3977 59.6024 31.6667 55.0001 31.6667C50.3977 31.6667 46.6667 35.3977 46.6667 40.0001C46.6667 44.6024 50.3977 48.3334 55.0001 48.3334Z" fill="#64FF6A"/>
</g>
<defs>
<clipPath id="clip0_2263_65">
<rect width="80" height="80" fill="white"/>
</clipPath>
</defs>
</svg>
