<svg width="40" height="40" viewBox="0 0 40 40" fill="none" xmlns="http://www.w3.org/2000/svg">
<path d="M3.33337 15V10.8334C3.33337 6.68337 6.68337 3.33337 10.8334 3.33337H15" stroke="#292D32" stroke-width="2.5" stroke-linecap="round" stroke-linejoin="round"/>
<path d="M25 3.33337H29.1667C33.3167 3.33337 36.6667 6.68337 36.6667 10.8334V15" stroke="#292D32" stroke-width="2.5" stroke-linecap="round" stroke-linejoin="round"/>
<path d="M36.6666 26.6666V29.1666C36.6666 33.3166 33.3166 36.6666 29.1666 36.6666H26.6666" stroke="#292D32" stroke-width="2.5" stroke-linecap="round" stroke-linejoin="round"/>
<path d="M15 36.6667H10.8334C6.68337 36.6667 3.33337 33.3167 3.33337 29.1667V25" stroke="#292D32" stroke-width="2.5" stroke-linecap="round" stroke-linejoin="round"/>
<path d="M28.3333 15.8334V24.1667C28.3333 27.5 26.6666 29.1667 23.3333 29.1667H16.6666C13.3333 29.1667 11.6666 27.5 11.6666 24.1667V15.8334C11.6666 12.5 13.3333 10.8334 16.6666 10.8334H23.3333C26.6666 10.8334 28.3333 12.5 28.3333 15.8334Z" stroke="#292D32" stroke-width="2.5" stroke-linecap="round" stroke-linejoin="round"/>
<path d="M31.6667 20H8.33337" stroke="#292D32" stroke-width="2.5" stroke-linecap="round" stroke-linejoin="round"/>
</svg>
